<?xml version="1.0" encoding="UTF-8" standalone="no"?>
<!-- Created with Inkscape (http://www.inkscape.org/) -->

<svg
   width="380"
   height="270"
   viewBox="0 0 100.54166 71.437501"
   version="1.1"
   id="svg1"
   sodipodi:docname="weird floral pattern.svg"
   xmlns:inkscape="http://www.inkscape.org/namespaces/inkscape"
   xmlns:sodipodi="http://sodipodi.sourceforge.net/DTD/sodipodi-0.dtd"
   xmlns="http://www.w3.org/2000/svg"
   xmlns:svg="http://www.w3.org/2000/svg">
  <sodipodi:namedview
     id="namedview1"
     pagecolor="#ffffff"
     bordercolor="#000000"
     borderopacity="0.25"
     inkscape:showpageshadow="2"
     inkscape:pageopacity="0.0"
     inkscape:pagecheckerboard="0"
     inkscape:deskcolor="#d1d1d1"
     inkscape:document-units="mm"
     inkscape:zoom="1.4574355"
     inkscape:cx="95.373005"
     inkscape:cy="118.01552"
     inkscape:window-width="1920"
     inkscape:window-height="1007"
     inkscape:window-x="0"
     inkscape:window-y="0"
     inkscape:window-maximized="1"
     inkscape:current-layer="layer1" />
  <defs
     id="defs1">
    <inkscape:path-effect
       effect="skeletal"
       id="path-effect4"
       is_visible="true"
       lpeversion="1"
       pattern="#path3-6"
       copytype="repeated_stretched"
       prop_scale="0.73"
       scale_y_rel="false"
       spacing="0"
       normal_offset="0"
       tang_offset="0"
       prop_units="false"
       vertical_pattern="false"
       hide_knot="false"
       fuse_tolerance="4.2" />
  </defs>
  <g
     inkscape:label="Layer 1"
     inkscape:groupmode="layer"
     id="layer1">
    <path
       style="fill:#ffffff;fill-opacity:1;stroke:#000000;stroke-width:1.05832;stroke-linejoin:round;stroke-dasharray:none;stroke-opacity:1"
       id="path1"
       inkscape:path-effect="#path-effect4"
       sodipodi:type="arc"
       sodipodi:cx="48.972546"
       sodipodi:cy="30.55168"
       sodipodi:rx="48.844181"
       sodipodi:ry="30.294945"
       d="m 93.833186,23.106043 c 0.694958,-1.533677 1.224281,-3.224329 1.557585,-5.010633 0.06269,-0.331141 0.11939,-0.665276 0.170229,-1.002185 -2.139635,-0.410102 -4.223158,-0.545995 -6.241317,-0.470979 0.157659,-2.009948 0.09937,-4.115839 -0.145659,-6.260754 -2.146186,0.206826 -4.211102,0.601331 -6.185495,1.120215 -0.06446,-0.389034 -0.135005,-0.778892 -0.211438,-1.169165 C 82.454039,8.6759947 82.03611,7.0342436 81.529089,5.3926984 79.492946,6.0191747 77.542824,6.7563809 75.675738,7.5895649 74.998756,5.6609772 74.191429,3.7346414 73.264752,1.8208373 71.356691,2.7541867 69.53334,3.7771056 67.791714,4.8748418 66.83207,3.0567309 65.75941,1.2530877 64.584726,-0.5258078 62.818143,0.66314919 61.134959,1.9205152 59.53219,3.231538 58.340558,1.5393911 57.053237,-0.12607219 55.68122,-1.7545719 54.069511,-0.36127282 52.539891,1.0792748 51.089375,2.5523188 50.402898,1.7769669 49.69683,1.0113399 48.972546,0.25672287 48.248269,-0.49788616 47.504007,-1.2451722 46.739387,-1.9832913 45.287707,-0.4357976 43.912057,1.1547677 42.623433,2.7781245 41.095116,1.3796825 39.48704,0.02431697 37.796219,-1.2732198 36.516535,0.43241331 35.330209,2.1689021 34.248237,3.9259666 32.574365,2.7151783 30.819423,1.5686271 28.980427,0.50106501 27.923412,2.3493503 26.977083,4.2162754 26.152436,6.0915603 24.346406,5.1196913 22.457995,4.2332198 20.484219,3.446898 19.700546,5.4223483 19.044888,7.4042225 18.528239,9.3822406 16.974227,8.8318724 15.365663,8.3509627 13.700975,7.9472754 13.303138,7.8511711 12.901752,7.7599733 12.496883,7.6741343 12.034936,9.7669029 11.733845,11.857527 11.622819,13.88909 9.6106383,13.568911 7.5205138,13.416374 5.3616986,13.494782 c 0.017001,2.163373 0.2466246,4.250842 0.7180795,6.205487 -0.3124819,0.03397 -0.6262623,0.0742 -0.9413055,0.12092 -1.6899225,0.245089 -3.4252051,0.695759 -5.14551059,1.384308 0.70565415,2.08365 1.66951839,3.972526 2.84090199,5.564324 -1.7612769,0.906226 -3.45127652,2.148882 -4.9693384,3.78185 4.3e-6,4e-6 6.1e-6,6e-6 7.9e-6,9e-6 1.51805857,1.632965 3.2080543,2.875619 4.9693273,3.781845 -1.1713847,1.591797 -2.1352503,3.480672 -2.84090586,5.564322 1.72031226,0.688553 3.45560186,1.139225 5.14553096,1.384315 0.315036,0.04672 0.6288093,0.08695 0.9412841,0.120916 -0.4714561,1.954646 -0.7010806,4.042114 -0.7180827,6.205487 2.1588151,0.07841 4.2489397,-0.07413 6.2611207,-0.394305 0.111025,2.031563 0.412115,4.122187 0.874061,6.214956 0.404876,-0.08584 0.80627,-0.17704 1.204115,-0.273146 1.66468,-0.403685 3.273237,-0.884593 4.827242,-1.434958 0.516648,1.978018 1.172306,3.959892 1.955978,5.935343 1.973776,-0.786321 3.862187,-1.672792 5.668218,-2.644661 0.824647,1.875285 1.770975,3.742211 2.82799,5.590496 1.838996,-1.067562 3.593938,-2.214112 5.26781,-3.4249 1.081972,1.757064 2.268297,3.493553 3.547982,5.199187 1.69082,-1.297537 3.298897,-2.652902 4.827214,-4.051343 1.288624,1.623357 2.664273,3.213922 4.115954,4.761416 0.764625,-0.738124 1.508892,-1.485415 2.233174,-2.24003 0.724279,-0.754611 1.430342,-1.520233 2.116814,-2.295579 1.450516,1.473044 2.980136,2.913592 4.591845,4.306891 1.372016,-1.628499 2.659338,-3.293962 3.85097,-4.986109 1.602769,1.311023 3.285953,2.56839 5.052536,3.757347 1.174684,-1.778895 2.247344,-3.582538 3.206988,-5.400649 1.741626,1.097737 3.564977,2.120656 5.473038,3.054006 0.926678,-1.913804 1.734005,-3.840139 2.410987,-5.768727 1.867086,0.833185 3.817208,1.570391 5.853351,2.196868 0.507023,-1.641552 0.924954,-3.28331 1.248008,-4.919864 0.07643,-0.390266 0.146979,-0.780117 0.211434,-1.169144 1.974393,0.518884 4.039309,0.913391 6.185494,1.120218 0.24503,-2.144916 0.30332,-4.250806 0.145662,-6.260755 2.018159,0.07502 4.101682,-0.06087 6.241317,-0.470975 -0.05084,-0.336917 -0.107546,-0.671059 -0.170232,-1.002208 -0.333303,-1.786296 -0.862624,-3.47694 -1.557578,-5.010611 1.921742,-0.551941 3.847642,-1.41246 5.67704,-2.635441 -1.103263,-1.908552 -2.439271,-3.546056 -3.957332,-4.810208 1.518062,-1.264147 2.854071,-2.901646 3.957336,-4.810192 -1.829397,-1.222982 -3.755296,-2.083503 -5.677038,-2.635445 z"
       transform="matrix(0.98431112,0,0,1.0836014,2.2312971,2.6793033)" />
  </g>
</svg>
